<?xml version="1.0" standalone="no"?><!DOCTYPE svg PUBLIC "-//W3C//DTD SVG 1.1//EN" "http://www.w3.org/Graphics/SVG/1.1/DTD/svg11.dtd"><svg t="1758307374828" class="icon" viewBox="0 0 1024 1024" version="1.1" xmlns="http://www.w3.org/2000/svg" p-id="14526" xmlns:xlink="http://www.w3.org/1999/xlink" width="64" height="64"><path d="M964.266667 953.685333h-904.533334c-14.165333 0-25.6-11.434667-25.6-25.6s11.434667-25.6 25.6-25.6h904.533334c14.165333 0 25.6 11.434667 25.6 25.6s-11.434667 25.6-25.6 25.6zM226.645333 845.141333H128a94.037333 94.037333 0 0 1-93.866667-93.866666V290.816c0-51.712 42.154667-93.866667 93.866667-93.866667h98.645333c51.712 0 93.866667 42.154667 93.866667 93.866667v460.458667c0 51.712-42.154667 93.866667-93.866667 93.866666zM128 248.149333a42.666667 42.666667 0 0 0-42.666667 42.666667v460.458667a42.666667 42.666667 0 0 0 42.666667 42.666666h98.645333a42.666667 42.666667 0 0 0 42.666667-42.666666V290.816a42.666667 42.666667 0 0 0-42.666667-42.666667H128zM561.322667 845.141333h-98.645334a94.037333 94.037333 0 0 1-93.866666-93.866666V164.181333c0-51.712 42.154667-93.866667 93.866666-93.866666h98.645334c51.712 0 93.866667 42.154667 93.866666 93.866666v587.093334c0 51.712-42.154667 93.866667-93.866666 93.866666z m-98.645334-723.626666a42.666667 42.666667 0 0 0-42.666666 42.666666v587.093334a42.666667 42.666667 0 0 0 42.666666 42.666666h98.645334a42.666667 42.666667 0 0 0 42.666666-42.666666V164.181333a42.666667 42.666667 0 0 0-42.666666-42.666666h-98.645334zM896 845.141333h-98.645333a94.037333 94.037333 0 0 1-93.866667-93.866666V417.450667c0-51.712 42.154667-93.866667 93.866667-93.866667h98.645333c51.712 0 93.866667 42.154667 93.866667 93.866667v333.824c0 51.712-42.154667 93.866667-93.866667 93.866666z m-98.645333-470.357333a42.666667 42.666667 0 0 0-42.666667 42.666667v333.824a42.666667 42.666667 0 0 0 42.666667 42.666666h98.645333a42.666667 42.666667 0 0 0 42.666667-42.666666V417.450667a42.666667 42.666667 0 0 0-42.666667-42.666667h-98.645333z" p-id="14527" fill="#ffffff"></path></svg>