<?xml version="1.0" standalone="no"?><!DOCTYPE svg PUBLIC "-//W3C//DTD SVG 1.1//EN" "http://www.w3.org/Graphics/SVG/1.1/DTD/svg11.dtd"><svg t="1758269742288" class="icon" viewBox="0 0 1024 1024" version="1.1" xmlns="http://www.w3.org/2000/svg" p-id="60626" xmlns:xlink="http://www.w3.org/1999/xlink" width="64" height="64"><path d="M25.6 128A102.4 102.4 0 0 1 120.32 25.856L128 25.6h124.8256a25.6 25.6 0 0 1 4.608 50.7904l-4.608 0.4096H128a51.2 51.2 0 0 0-50.8416 45.2096L76.8 128v768a51.2 51.2 0 0 0 45.2096 50.8416l5.9904 0.3584h768a51.2 51.2 0 0 0 50.8416-45.2096l0.3584-5.9904v-768a51.2 51.2 0 0 0-45.2096-50.8416L896 76.8h-110.3872a25.6 25.6 0 0 1-4.608-50.7904l4.608-0.4096H896a102.4 102.4 0 0 1 102.144 94.72l0.256 7.68v768a102.4 102.4 0 0 1-94.72 102.144l-7.68 0.256h-768a102.4 102.4 0 0 1-102.144-94.72L25.6 896v-768z m314.6752 212.2752a25.6 25.6 0 0 1 32.6656-2.9184l3.584 2.9184L486.4 450.2016V51.2a25.6 25.6 0 0 1 50.7904-4.608L537.6 51.2v399.0016l109.8752-109.9264a25.6 25.6 0 0 1 32.6656-2.9184l3.584 2.9184a25.6 25.6 0 0 1 2.9184 32.6656l-2.9184 3.584-153.6 153.6-0.6656 0.5632a25.7536 25.7536 0 0 1-1.9968 1.6896l2.6624-2.2528A25.7024 25.7024 0 0 1 512 537.6h-0.512a25.7536 25.7536 0 0 1-3.2768-0.256L512 537.6a25.7024 25.7024 0 0 1-14.5408-4.5568l-0.9216-0.6656a25.7536 25.7536 0 0 1-2.048-1.6896l-0.6144-0.5632-153.6-153.6a25.6 25.6 0 0 1 0-36.2496z" p-id="60627" fill="#ffffff"></path></svg>