<?xml version="1.0" standalone="no"?><!DOCTYPE svg PUBLIC "-//W3C//DTD SVG 1.1//EN" "http://www.w3.org/Graphics/SVG/1.1/DTD/svg11.dtd"><svg t="1757920387949" class="icon" viewBox="0 0 1185 1024" version="1.1" xmlns="http://www.w3.org/2000/svg" p-id="41489" xmlns:xlink="http://www.w3.org/1999/xlink" width="74.0625" height="64"><path d="M6.736842 101.052632c2.694737-9.431579 4.715789-18.863158 8.084211-28.294737C29.642105 30.989474 61.305263 6.063158 105.768421 6.063158c235.789474-0.673684 471.578947-0.673684 707.368421 0 51.873684 0 90.947368 31.663158 94.31579 86.231579 4.715789 82.189474 1.347368 165.726316 1.347368 248.589474-43.789474-6.736842-65.347368-28.968421-66.021053-70.063158-0.673684-50.526316 0-101.052632-0.673684-151.578948-0.673684-38.4-7.410526-44.463158-45.810526-44.463158H125.978947c-41.094737 0-46.484211 4.715789-46.48421 46.484211v784.842105c0 41.094737 4.715789 45.810526 47.831579 45.810526h666.947368c42.442105 0 47.831579-5.389474 47.831579-49.178947 0-16.842105-0.673684-33.684211 0.673684-50.526316 3.368421-36.378947 29.642105-61.305263 66.694737-61.978947 0 49.178947 3.368421 98.357895-0.673684 147.536842-4.042105 46.484211-45.136842 81.515789-92.294737 81.51579-237.136842 0.673684-473.6 0.673684-710.736842 0-47.831579 0-79.494737-26.273684-92.294737-72.757895-2.021053-7.410526-4.715789-14.821053-6.736842-22.231579V101.052632z" p-id="41490" fill="#ffffff"></path><path d="M695.915789 759.242105c-49.852632 0.673684-74.778947-33.010526-64-82.189473 12.126316-56.589474 36.378947-101.726316 84.884211-138.778948 103.747368-80.168421 202.105263-167.073684 303.157895-251.28421 35.705263-29.642105 48.505263-28.294737 78.147368 6.063158 21.557895 25.6 43.789474 51.2 65.347369 76.8 26.947368 30.989474 26.273684 46.484211-5.389474 72.757894-103.747368 86.905263-210.863158 171.115789-311.91579 262.063158-45.136842 40.421053-94.315789 52.547368-150.231579 54.568421z m6.736843-72.08421c35.705263 2.021053 63.326316-6.063158 88.926315-28.294737 74.778947-64.673684 150.905263-126.652632 227.031579-189.978947 26.273684-22.231579 52.547368-43.789474 80.168421-66.694737-17.515789-18.863158-33.010526-35.031579-47.831579-50.526316-102.4 84.884211-200.084211 168.421053-300.463157 249.263158-28.294737 22.231579-43.115789 49.178947-47.831579 86.231579zM196.715789 301.136842c0-18.189474 14.821053-33.010526 32.336843-33.010526h437.894736c18.189474 0 32.336842 14.821053 32.336843 32.336842 0 18.189474-14.821053 32.336842-32.336843 32.336842H229.052632c-17.515789 0.673684-32.336842-14.147368-32.336843-31.663158zM196.715789 507.284211c0-18.189474 14.147368-32.336842 32.336843-32.336843h255.326315c18.189474 0 32.336842 14.147368 32.336842 32.336843 0 18.189474-14.147368 32.336842-32.336842 32.336842H229.052632c-18.189474 0-32.336842-14.147368-32.336843-32.336842zM196.715789 716.8c0-17.515789 14.147368-32.336842 31.663158-32.336842h255.326316c17.515789 0 31.663158 14.147368 31.663158 31.663158s-14.147368 31.663158-31.663158 31.663158H228.378947c-17.515789 0.673684-31.663158-13.473684-31.663158-30.989474z" p-id="41491" fill="#ffffff"></path></svg>