<?xml version="1.0" standalone="no"?><!DOCTYPE svg PUBLIC "-//W3C//DTD SVG 1.1//EN" "http://www.w3.org/Graphics/SVG/1.1/DTD/svg11.dtd"><svg t="1757579394648" class="icon" viewBox="0 0 1024 1024" version="1.1" xmlns="http://www.w3.org/2000/svg" p-id="36630" xmlns:xlink="http://www.w3.org/1999/xlink" width="64" height="64"><path d="M265.9 123.4c0-14.3-11.6-25.9-25.9-25.9h-25.9c-14.3 0-25.9 11.6-25.9 25.9v70.4h77.7v-70.4z m-77.7 777.2c0 14.3 11.6 25.9 25.9 25.9H240c14.3 0 25.9-11.6 25.9-25.9V401.1h-77.7v499.5z m116.6-680.9H149.3c-28.6 0-51.8 23.2-51.8 51.8v51.8c0 28.6 23.2 51.8 51.8 51.8h155.4c28.6 0 51.8-23.2 51.8-51.8v-51.8c0.1-28.6-23.1-51.8-51.7-51.8z m246.1-96.3c0-14.3-11.6-25.9-25.9-25.9h-26c-14.3 0-25.9 11.6-25.9 25.9v454.7h77.7V123.4z m-77.8 777.2c0 14.3 11.6 25.9 25.9 25.9h26c14.3 0 25.9-11.6 25.9-25.9V785.4h-77.7v115.2zM589.7 604H434.3c-28.6 0-51.8 23.2-51.8 51.8v51.8c0 28.6 23.2 51.8 51.8 51.8h155.4c28.6 0 51.8-23.2 51.8-51.8v-51.8c0-28.6-23.2-51.8-51.8-51.8z m246.1-480.6c0-14.3-11.6-25.9-25.9-25.9H784c-14.3 0-25.9 11.6-25.9 25.9v200h77.7v-200z m-77.7 777.2c0 14.3 11.6 25.9 25.9 25.9h25.9c14.3 0 25.9-11.6 25.9-25.9v-370h-77.7v370z m116.6-551.3H719.2c-28.6 0-51.8 23.2-51.8 51.8v51.8c0 28.6 23.2 51.8 51.8 51.8h155.4c28.6 0 51.8-23.2 51.8-51.8v-51.8c0.1-28.6-23.1-51.8-51.7-51.8z" p-id="36631" fill="#ffffff"></path></svg>