<?xml version="1.0" standalone="no"?><!DOCTYPE svg PUBLIC "-//W3C//DTD SVG 1.1//EN" "http://www.w3.org/Graphics/SVG/1.1/DTD/svg11.dtd"><svg t="1757639990944" class="icon" viewBox="0 0 1024 1024" version="1.1" xmlns="http://www.w3.org/2000/svg" p-id="48120" xmlns:xlink="http://www.w3.org/1999/xlink" width="64" height="64"><path d="M230.765714 67.876571A29.622857 29.622857 0 0 0 201.142857 38.253714h-29.622857a29.622857 29.622857 0 0 0-29.549714 29.622857v80.457143h88.795428v-80.457143zM141.897143 956.123429c0 16.310857 13.165714 29.622857 29.549714 29.622857h29.622857a29.622857 29.622857 0 0 0 29.622857-29.622857V385.243429H141.897143v570.88z m133.266286-778.24h-177.737143a59.245714 59.245714 0 0 0-59.245715 59.245714v59.245714c0 32.621714 26.550857 59.172571 59.245715 59.172572H275.017143a59.245714 59.245714 0 0 0 59.245714-59.245715v-59.172571a59.026286 59.026286 0 0 0-59.099428-59.245714zM556.397714 67.949714a29.622857 29.622857 0 0 0-29.622857-29.622857h-29.696a29.622857 29.622857 0 0 0-29.622857 29.622857v519.68h88.795429V67.876571h0.146285zM467.529143 956.123429c0 16.310857 13.238857 29.622857 29.622857 29.622857h29.696a29.622857 29.622857 0 0 0 29.622857-29.622857v-131.657143H467.675429v131.657143h-0.146286z m133.266286-338.944H423.204571a59.245714 59.245714 0 0 0-59.245714 59.172571v59.245714c0 32.621714 26.550857 59.172571 59.245714 59.172572h177.590858a59.245714 59.245714 0 0 0 59.245714-59.245715v-59.245714a59.245714 59.245714 0 0 0-59.245714-59.172571zM882.102857 67.876571a29.622857 29.622857 0 0 0-29.549714-29.622857h-29.622857a29.622857 29.622857 0 0 0-29.622857 29.622857v228.571429h88.795428V67.876571z m-88.795428 888.246858c0 16.310857 13.312 29.622857 29.622857 29.622857h29.622857a29.622857 29.622857 0 0 0 29.549714-29.622857V533.211429h-88.795428v422.765714z m133.266285-630.052572h-177.737143a59.245714 59.245714 0 0 0-59.172571 59.245714v59.172572c0 32.621714 26.550857 59.172571 59.245714 59.172571h177.590857a59.245714 59.245714 0 0 0 59.172572-59.245714v-59.172571a59.026286 59.026286 0 0 0-59.099429-59.245715z" fill="#000000" p-id="48121"></path></svg>